<svg xmlns="http://www.w3.org/2000/svg" viewBox="0 0 532.23 376.23"><defs><style>.cls-1{fill:#1a2e35;}.cls-2{fill:#e7eaf3;}.cls-3{fill:#bcc5d2;}.cls-12,.cls-4,.cls-9{fill:#fff;}.cls-12,.cls-4,.cls-6{stroke:#6e7071;}.cls-4,.cls-7,.cls-8{stroke-miterlimit:10;}.cls-4{stroke-width:1.24px;}.cls-5{fill:#f2f3f7;}.cls-6,.cls-7,.cls-8{fill:none;}.cls-12,.cls-6{stroke-linecap:round;stroke-linejoin:round;stroke-width:1.24px;}.cls-7,.cls-8{stroke:#1a2e35;}.cls-8{stroke-dasharray:3.96 3.96;}.cls-10{fill:#0033a1;}.cls-11{fill:#060707;}</style></defs><g id="Layer_2" data-name="Layer 2"><g id="Layer_1-2" data-name="Layer 1"><polygon class="cls-1" points="0 338.96 66.53 338.72 133.06 338.63 266.12 338.46 399.17 338.63 465.7 338.72 532.23 338.96 465.7 339.21 399.17 339.29 266.12 339.46 133.06 339.29 66.53 339.2 0 338.96"/><polygon class="cls-2" points="521.71 108.38 512.63 152.33 506.8 146.64 496.85 153.72 489.26 144.29 472.22 156.68 457.67 132.34 441.43 141.84 434.99 132.97 414.37 144.58 408.17 131.3 422.62 61.3 500.11 77.3 521.71 108.38"/><polygon class="cls-3" points="500.11 77.3 521.71 108.38 494.84 102.83 500.11 77.3"/><polygon class="cls-2" points="510.7 161.12 497.39 225.6 393.03 204.06 406.24 140.09 412.44 153.37 433.06 141.75 439.5 150.63 455.74 141.12 470.29 165.47 487.33 153.08 494.92 162.51 504.87 155.42 510.7 161.12"/><polygon class="cls-3" points="435.76 375.61 146.8 375.61 188.59 138.66 477.54 138.66 435.76 375.61"/><polygon class="cls-3" points="287.48 114.12 192.91 114.12 188.59 138.66 289.79 138.66 287.48 114.12"/><polygon class="cls-4" points="435.76 375.61 146.8 375.61 188.59 138.66 477.54 138.66 435.76 375.61"/><polygon class="cls-4" points="287.48 114.12 192.91 114.12 188.59 138.66 289.79 138.66 287.48 114.12"/><polygon class="cls-2" points="433.9 366.22 144.32 366.22 166.86 151.48 456.44 151.48 433.9 366.22"/><polygon class="cls-2" points="357.54 134.84 251.18 141.42 242.73 4.89 321.7 0 350.7 24.32 357.54 134.84"/><polygon class="cls-3" points="321.7 0 350.7 24.32 323.31 26.02 321.7 0"/><polygon class="cls-5" points="435.33 375.61 145.76 375.61 144.69 163.75 434.27 163.75 435.33 375.61"/><polygon class="cls-6" points="27.46 342.55 8.05 367.98 42.21 367.98 39.23 343.89 27.46 342.55"/><polygon class="cls-6" points="82.67 344.61 82.67 367.98 128.57 367.98 98.6 350.1 82.67 344.61"/><path class="cls-7" d="M419.77,231.41c.6-.3,1.19-.61,1.78-.93"/><path class="cls-8" d="M424.94,228.44c12.73-8.34,21.57-22.31,19.4-35.44-4.81-29.11-43.52-36-48.32-69.85-4.58-32.27,27.79-42.9,42.1-41.92,15.81,1.08,14.38,16.37.71,17.92-23.69,2.7-44.42-18.53-40.73-49.53,2.73-23,20.72-36.09,28.42-40.7"/><path class="cls-7" d="M428.24,7.93C429.35,7.32,430,7,430,7"/><path class="cls-9" d="M187.28,56.26a23.64,23.64,0,0,1-39.5,14.95L136,73l5.91-10.22a23.64,23.64,0,1,1,45.41-6.47Z"/><path class="cls-1" d="M187.28,56.26a23.89,23.89,0,0,1-4.77,12,21.59,21.59,0,0,1-4.64,4.58,23.75,23.75,0,0,1-12.07,4.69,24,24,0,0,1-3.28.07,21.08,21.08,0,0,1-3.27-.34,23.87,23.87,0,0,1-11.7-5.78l.28.09L136,73.36l-.86.13.44-.75,5.88-10.24,0,.4a23.92,23.92,0,0,1,29.64-31.75,24.25,24.25,0,0,1,9.11,5.59A23.8,23.8,0,0,1,187.28,56.26Zm0,0a23.39,23.39,0,0,0-26.81-25.58,23.29,23.29,0,0,0-9.76,3.86,24.13,24.13,0,0,0-7.07,7.71,23.22,23.22,0,0,0-3,10,23.55,23.55,0,0,0,1.66,10.3l.08.21-.11.2-6,10.2-.42-.63,11.83-1.65.17,0L148,71a23.24,23.24,0,0,0,11.32,5.83,19.28,19.28,0,0,0,3.21.39,21.77,21.77,0,0,0,3.23,0,23.3,23.3,0,0,0,6.32-1.39,22.11,22.11,0,0,0,5.7-3.07,26.23,26.23,0,0,0,2.49-2.09,24.85,24.85,0,0,0,2.15-2.44A23.79,23.79,0,0,0,187.28,56.26Z"/><path class="cls-10" d="M161.24,62l-.17-1.26c-.44-2.61.28-5.54,2.55-8.6,2-2.71,3.16-4.67,3-6.87-.14-2.48-1.8-4-4.87-3.93A8.68,8.68,0,0,0,157,43.15l-1.34-3a12.84,12.84,0,0,1,6.86-2.34c5.61-.31,8.34,3,8.54,6.71.19,3.31-1.53,5.81-3.71,8.72-2,2.65-2.67,4.84-2.38,7.32l.12,1.26Zm-.69,6.89a2.89,2.89,0,0,1,2.75-3.24,3.06,3.06,0,1,1-2.75,3.24Z"/><path class="cls-4" d="M95.3,17.06a31.08,31.08,0,0,1,7,19.9c0,4.1-.8,8.62,1.58,12,1.81,2.53,5.12,3.8,6.59,6.54,1.77,3.3.26,7.47,1.35,11.05,1.54,5.08,7.49,7.21,11,11.17a14.11,14.11,0,0,1,3,12.91,14.53,14.53,0,0,1-9.12,9.65,9.4,9.4,0,0,1-7.22-.12c-2.39-1.19-3.86-3.63-5.06-6-2.34-4.68-22.93-30-24.1-35.13"/><path class="cls-4" d="M80.32,11.09c-8.42-1.36-16.51,4.23-20.06,12s-3.64,16.57-3.9,25.1S55.5,65.6,51.14,72.93c-2.76,4.66-7,8.74-7.7,14.11-.6,4.81,1.88,9.65,1.06,14.43-.72,4.16-3.89,7.77-3.76,12,.15,5.07,5.37,8.9,10.44,9S61,120,65,116.82A53,53,0,0,0,80.11,97.58"/><path class="cls-4" d="M66.47,31.17A16,16,0,0,1,80.8,13.31c8.49-.8,16,5.52,17.32,14,1.12,7.4,2.08,14.87,2,17.58-.1,8.19-4.89,11.37-6.83,12.33a11.08,11.08,0,0,1-2.15.53h0a.08.08,0,0,0-.05.07L93,67.17c.82,6.15-2.61,11.64-8.75,12.53s-11-3.83-11.93-10Z"/><path class="cls-4" d="M179.58,136.58l-37.39-14.82S123,96.64,123.43,96.15L110,110.87l19.55,26.46,45.28,10.6,21.45.17C194.6,139.86,179.58,136.58,179.58,136.58Z"/><path class="cls-4" d="M98.08,64.92l-5.09-2L71,65.73v3.89l-.63.08a45,45,0,0,0-13.48,5.23A23,23,0,0,0,46.15,98.34c.89,5.56,2.63,12.32,6,16.23,6.39,7.47,12.22-1.76,12.22-1.76s4,9.14,3.78,13.47a116.48,116.48,0,0,1-2.31,13.53.71.71,0,0,0,.57.85l46.41,8.58L113,137.9l-1.48-46.65-2.05-18.12S109.56,64.47,98.08,64.92Z"/><polygon class="cls-4" points="108.78 70.11 126.47 95.68 112.23 113.03 108.78 70.11"/><path class="cls-11" d="M65.65,140.53s-5.86.25-9.72,20.21-34.63,186-34.63,186l21.5.19L84.44,188.86,80.86,352.3l23-.6s16.08-178,16.24-188.22c.19-12.72-7.11-25.58-7.11-25.58Z"/><path class="cls-4" d="M66.65,102.59a48.82,48.82,0,0,0,2.7,7.84c7.69-13.35,16-25.8,17.51-33-.22-.71-2.85-6.94-3.17-7.83a10.41,10.41,0,0,1,.12-4c.26-1.6.71-3.75.84-4.75.41-3,.9-3.51,2-3.17,1.44.47-.59,8.53.59,8.71.64.09,1.41-2.67,1.64-4.94s1.25-9.23,2-9.7c1.1-.68,2,.4,1.77,2.65s-.63,9.1.57,9.19S95.35,52.1,95.35,52.1s-.19-2.52,1.2-2.46c2.5.11.54,12.29.33,13.45-.15.8,1.15,1,1.26.08s.73-11.56,3.27-11.48c2,.07-1.51,10-.42,12.36s1.86-7.86,3.73-7.72c.69.06,1.21.19-.07,5.94-.68,3.1-4.49,12.91-7.69,16.55-3,15.94-12.7,63.9-33,54.57-11.38-5.23-16.23-29.07-16.23-29.07"/><path class="cls-4" d="M46.5,100.35a165.09,165.09,0,0,0,9.94,30,1.85,1.85,0,0,0,3.4.16l9.51-20.11L67.21,97.57"/><path class="cls-12" d="M67,52a168.24,168.24,0,0,1,3.47,17.19,46.08,46.08,0,0,1-.37,15c-.4,2-.81,4.32.66,5.64,1.16,1,3,.84,4.37.16,4.58-2.24,6-8.25,5.57-13.39s-2-10.26-1.26-15.35c.31-2,1-4.08.33-6-.54-1.63-2-2.86-2.43-4.52-.78-2.82,1.43-5.56,1.72-8.46s-1.27-5.48-2.25-8.15A21.3,21.3,0,0,1,75.93,23a7.65,7.65,0,0,0,3.32,3.34,5,5,0,0,0,2.44.59,2.94,2.94,0,0,0,2.2-1.07,4.9,4.9,0,0,0,.53-3.49,8.44,8.44,0,0,0,2.65,3,2.9,2.9,0,0,0,3.66-.41c.79-1,.48-2.51,0-3.73a7.37,7.37,0,0,0,3,2.63A2.72,2.72,0,0,0,96,24a2.09,2.09,0,0,0,1.13-1.45,4.36,4.36,0,0,0,0-1.9,12.52,12.52,0,0,0-5.33-7.49,14,14,0,0,0-7.45-2.61,10.15,10.15,0,0,0-7.33,2.66,7.06,7.06,0,0,0-.76.88c-2.61-.51-5.71-.12-7.17,1.3-2.27,2.2-4,7.56-4.49,10.71"/><polygon class="cls-9" points="435.33 375.61 145.76 375.61 124.44 172.67 414.02 172.67 435.33 375.61"/><polygon class="cls-4" points="435.33 375.61 145.76 375.61 104.64 147.26 394.22 147.26 435.33 375.61"/><circle class="cls-10" cx="269.57" cy="65.5" r="7.16" transform="translate(-3.63 17.34) rotate(-3.66)"/><circle class="cls-10" cx="326.05" cy="61.89" r="7.16"/><path class="cls-10" d="M315,90l-.55-.9c-.05-.09-5.23-8.34-14.53-7.74-8.49.54-10,8.72-10.1,9.07l-.19,1-2.08-.36.18-1c0-.1,1.88-10.17,12.05-10.82,10.61-.68,16.24,8.37,16.48,8.75l.55.91Z"/><polygon class="cls-10" points="291.54 260.2 304.32 260.2 311.06 298.27 298.28 298.27 291.54 260.2"/><polygon class="cls-10" points="267.33 260.2 280.11 260.2 286.85 298.27 274.07 298.27 267.33 260.2"/><polygon class="cls-10" points="243.13 260.26 255.91 260.26 262.68 298.46 249.9 298.46 243.13 260.26"/><polygon class="cls-10" points="218.93 260.26 231.71 260.26 238.47 298.46 225.69 298.46 218.93 260.26"/><path class="cls-10" d="M306.53,248.62l-.53-3H212.07l.53,3c.42,2.37,2.19,4.28,4,4.28h87.53c1.76,0,2.86-1.91,2.44-4.28Z"/><path class="cls-10" d="M216,310.47l1,5.74H326.08l-1-5.74a7.12,7.12,0,0,0-6.81-5.61H220.81A4.66,4.66,0,0,0,216,310.47Z"/><path class="cls-10" d="M207.69,245.62H310.38a2.57,2.57,0,0,0,2.68-2.25,3.64,3.64,0,0,0-2-3.46L256.4,219.06a5.49,5.49,0,0,0-4.14,0L205,239.91a2.65,2.65,0,0,0-.78,3.46,4,4,0,0,0,3.47,2.25Z"/></g></g></svg>