<svg xmlns="http://www.w3.org/2000/svg" viewBox="0 0 476.61 332.6"><defs><style>.cls-1,.cls-5{fill:#fff;}.cls-1{stroke:#6e7071;stroke-width:1.24px;}.cls-1,.cls-2,.cls-3{stroke-linecap:round;stroke-linejoin:round;}.cls-2,.cls-3{fill:none;stroke-width:1.24px;}.cls-2{stroke:#feb546;}.cls-3{stroke:#5dd1a9;}.cls-4{fill:#e7eaf3;}.cls-6{fill:#0033a1;}.cls-7{fill:#060707;}.cls-8{fill:#feb546;}.cls-9{fill:#5dd1a9;}</style></defs><g id="Layer_2" data-name="Layer 2"><g id="Layer_1-2" data-name="Layer 1"><line class="cls-1" x1="0.62" y1="323.79" x2="475.99" y2="323.79"/><line class="cls-2" x1="69.2" y1="289.09" x2="45.02" y2="289.09"/><line class="cls-2" x1="57.11" y1="277" x2="57.11" y2="301.17"/><line class="cls-3" x1="418.32" y1="28.26" x2="396.02" y2="28.26"/><line class="cls-3" x1="407.17" y1="17.11" x2="407.17" y2="39.41"/><line class="cls-1" x1="312.75" y1="124.23" x2="315.87" y2="143.78"/><polygon class="cls-1" points="365.13 166.3 367.98 200.09 338.16 198.67 341.6 168.75 365.13 166.3"/><path class="cls-1" d="M321.68,143.54c1.79,3.7.84,7.87-2.12,9.31s-6.83-.41-8.62-4.12-.84-7.88,2.12-9.31S319.89,139.83,321.68,143.54Z"/><path class="cls-1" d="M379.52,133.88a6.9,6.9,0,0,1,6.16-.88c3.88,1.45,5.56,6.55,3.76,11.4s-6.42,7.61-10.3,6.17a6.06,6.06,0,0,1-1.48-.81c-.6,15.67-12.6,28.49-27.91,29.21a28.61,28.61,0,0,1-19.87-6.83c-3.46-2.55-6.74-7.5-8.41-11.46a58.75,58.75,0,0,1-4.12-14.43c-.15-1-.36-1.92-.59-2.87a31.75,31.75,0,0,1-.53-12.27"/><path class="cls-1" d="M334.83,186.62s-28.06,3.56-35.19,9.35-41.42,90.87-41.42,90.87l28.51,33.4,60.57.45s45.43,24.5,73.94,1.33,13.81-103.78-2.67-121.15S372.69,184,372.69,184l-6.05.25s-2.5,11.83-16.2,11.31-10.82-9.5-10.82-9.5Z"/><rect class="cls-4" x="118.48" y="146.45" width="118.64" height="56.71" rx="6.24"/><circle class="cls-5" cx="139.03" cy="174.96" r="15.64" transform="translate(-83 149.55) rotate(-45)"/><rect class="cls-4" x="136.91" y="182.84" width="4.59" height="4.58"/><path class="cls-4" d="M148.74,174.64a1.68,1.68,0,0,0-1.54.06,8.18,8.18,0,0,0-16.35,0,1.66,1.66,0,0,0-1.53-.06,2.37,2.37,0,0,0,2.05,4.15,1.16,1.16,0,0,0,.34-.24,7.37,7.37,0,0,0,14.64,0,1.16,1.16,0,0,0,.34.24,2.37,2.37,0,0,0,2.05-4.15Z"/><path class="cls-6" d="M133.44,164.74s2.3-2,7.54-1.64,6.23,3.05,6.53,7l-.31,4.65a20.66,20.66,0,0,1-3.13-5.28s-2.93,3.29-4.21,2.9.49-2.76.49-2.76-6,5.14-9.5,5.14c0,0-1.86-6,.76-8.23,0,0-2,.1-2.08-.29s.94-1,2.84-.75c0,0-1.35-2.64-.6-2.91S133.44,164.74,133.44,164.74Z"/><path class="cls-5" d="M160.64,162.85h56.92a.6.6,0,0,1,.6.6V165a.6.6,0,0,1-.6.6H160.64a.6.6,0,0,1-.6-.6v-1.53A.59.59,0,0,1,160.64,162.85Z"/><path class="cls-5" d="M160.64,170h38a.6.6,0,0,1,.6.6v1.53a.59.59,0,0,1-.59.59h-38a.6.6,0,0,1-.6-.6v-1.53A.59.59,0,0,1,160.64,170Z"/><path class="cls-5" d="M160.64,177.19h28.83a.6.6,0,0,1,.6.6v1.53a.59.59,0,0,1-.59.59H160.64a.6.6,0,0,1-.6-.6v-1.53A.59.59,0,0,1,160.64,177.19Z"/><path class="cls-5" d="M160.64,184.36h56.92a.6.6,0,0,1,.6.6v1.53a.59.59,0,0,1-.59.59H160.64a.6.6,0,0,1-.6-.6V185A.59.59,0,0,1,160.64,184.36Z"/><path class="cls-1" d="M391.84,285.06a69.86,69.86,0,0,1-2.71-13.81c-.52-4.66-.7-9.36-.76-14.05s0-9.41.17-14.11.38-9.43.63-14.16"/><path class="cls-1" d="M305.21,225.82c-1.28,6.9-2.64,13.77-4,20.63s-2.87,13.7-4.53,20.49S293.2,280.48,291,287.1a95.51,95.51,0,0,1-3.78,9.73,37.83,37.83,0,0,1-5.38,8.94"/><path class="cls-1" d="M291.11,301c.18-1.41,10.88-3,14.82-3.19,3-.15,22.74-.81,29.47-1.12l-.5,1.73.1,7.64,1.11,5.05c-5.9.38-20.32.94-23.32,1.54-4,.79-11,3.81-11,3.81s-2.89-.66.79-2.24a17.64,17.64,0,0,0,5.9-4.23c.5-.56-.05-1.57-.41-1.47-10,2.62-11,3.05-11,3.05s-11.77-.06-.07-2.71c7-1.58,9.53-2.5,10.15-3.29.27-.33-.21-1.47-.63-1.5-6.08-.37-17,1.78-14,.37,2.44-1.16,10.11-2.42,13.09-2.89.19,0,.48-1.14-.33-1.21C299.48,299.85,290.94,302.3,291.11,301Z"/><path class="cls-1" d="M396,283.89c-2.46.6-4.89,1.28-7.37,1.8s-4.95,1-7.41,1.53c-5,.91-9.95,1.7-14.95,2.4s-10,1.26-15,1.74-10.09.93-15,1.2l-.66,0-.15.58a39.66,39.66,0,0,0-.91,5,40.51,40.51,0,0,0-.3,5.05,31.69,31.69,0,0,0,.44,5,23.74,23.74,0,0,0,1.46,4.87l.06.13.11.08,5.5,3.69q2.75,1.84,5.53,3.65"/><path class="cls-7" d="M173.65,244.3h95.47a7.22,7.22,0,0,1,6.68,4.48L305,320.13h52.78a2.67,2.67,0,0,1,2.67,2.67h0a2.67,2.67,0,0,1-2.67,2.68H205.43a7.15,7.15,0,0,1-6.52-4.22l-30.73-68.51A6,6,0,0,1,173.65,244.3Z"/><path class="cls-1" d="M364.9,128c1.6,23,11.92,16.35,11.92,16.35s-.31-7.86,2.51-10.09a6,6,0,0,1,5.44-1.32l-.14-.21.11,0c6.83-27.45-6.78-36-10.33-36.65,2.09.11,5.91,0,4.5-2.26-1.9-3-8.14-2.85-8.14-2.85s8.06-4.94,3.18-6.66-8.27,5.47-8.27,5.47c-16.89-8.92-43.25.35-53.07,8.26s-.46,7.61-.46,7.61c-13,14.57-.32,13.64-.32,13.64-4.65,16.9,28.13-3.56,28.13-3.56-2.47,11,16.74,2.4,24.93-1.72"/><path class="cls-4" d="M45,18H185.93a8.82,8.82,0,0,1,8.82,8.82V84.93a8.82,8.82,0,0,1-8.82,8.82H45a8.81,8.81,0,0,1-8.81-8.81V26.77A8.81,8.81,0,0,1,45,18Z"/><circle class="cls-5" cx="66.42" cy="55.85" r="22.1" transform="translate(-16.41 29.98) rotate(-22.71)"/><path class="cls-6" d="M54.92,56.43s-2.19-9,3-12.36,10.79-4.13,14.6-2.19c5.28,2.69,7.45,9.95,5.76,14l-14-3.52Z"/><rect class="cls-4" x="63.43" y="66.99" width="6.49" height="6.48"/><path class="cls-4" d="M69.92,70.87V67H63.43v3.3A9.51,9.51,0,0,0,69.92,70.87Z"/><path class="cls-4" d="M80.15,55.39a2.44,2.44,0,0,0-2.18.09A11.13,11.13,0,0,0,66.42,43.94,11.13,11.13,0,0,0,54.87,55.48a2.43,2.43,0,0,0-2.18-.09c-1.3.64-1.7,2.47-.9,4.1s2.5,2.41,3.8,1.77a2.34,2.34,0,0,0,.49-.33,10.41,10.41,0,0,0,20.68,0,2.34,2.34,0,0,0,.49.33c1.3.64,3-.15,3.8-1.77S81.45,56,80.15,55.39Z"/><path class="cls-4" d="M70.67,62.94a3.59,3.59,0,0,1-3.55,2.35c-1.8,0-3.33-.86-3.69-2.13Z"/><path class="cls-6" d="M54.87,55.48s8.49-2.57,12.21-6.87c0,0-1.06,5.18-1.84,6,.25.17,8.48-3.84,9.6-7.53s-8.42-5-8.42-5S63.15,43.45,63,43.53s-3.23.44-3.59,1.22c-.45,1-2.62,1.11-2.62,1.11L55.42,48.7l-1,3Z"/><path class="cls-6" d="M47.91,43.78a9.27,9.27,0,0,0,6.29.41c4.95-1.52,6.92-.93,7.58-.55a1.64,1.64,0,0,0,1.3.17c.49-.17.94-.61.8-1.73A9,9,0,0,0,60,34.69,22.16,22.16,0,0,0,47.91,43.78Z"/><path class="cls-8" d="M58.57,43.47h0a.42.42,0,0,1,.1-.6A11.59,11.59,0,0,1,64.19,41a.41.41,0,0,1,.44.42h0a.42.42,0,0,1-.4.41,11.08,11.08,0,0,0-5.1,1.77A.41.41,0,0,1,58.57,43.47Z"/><rect class="cls-5" x="95.15" y="38.94" width="50.16" height="3.84" rx="0.87"/><rect class="cls-5" x="95.15" y="68.93" width="84.67" height="3.84" rx="0.87"/><rect class="cls-5" x="95.15" y="59.2" width="43.74" height="3.84" rx="0.87"/><rect class="cls-5" x="95.15" y="49.07" width="34.53" height="3.84" rx="0.87"/><ellipse class="cls-5" cx="226.95" cy="285.06" rx="6.03" ry="8.25" transform="translate(-53.94 52.97) rotate(-11.91)"/><path class="cls-9" d="M25.62,14.66s-.92,9.09-8.09,9.71c7.17.63,8.09,9.72,8.09,9.72s.92-9.09,8.09-9.72C26.54,23.75,25.62,14.66,25.62,14.66Z"/><path class="cls-8" d="M221.48,83.9s-.7,8-6.17,8.61c5.47.56,6.17,8.61,6.17,8.61s.7-8.05,6.17-8.61C222.18,92,221.48,83.9,221.48,83.9Z"/><circle class="cls-6" cx="233.01" cy="149.82" r="10.97" transform="translate(-41.1 109.75) rotate(-24.42)"/><path class="cls-5" d="M232.74,146c0,2.55.09,5.09.13,7.63a.74.74,0,0,0,1.48,0q-.07-3.81-.13-7.63a.74.74,0,0,0-1.48,0Z"/><path class="cls-5" d="M229.46,150.62l8.17-.14a.74.74,0,0,0,0-1.48l-8.17.14a.74.74,0,0,0,0,1.48Z"/><circle class="cls-6" cx="192.28" cy="17.96" r="17.96" transform="translate(9.78 81.11) rotate(-24.42)"/><path class="cls-5" d="M191.85,11.7l.21,12.49a1.21,1.21,0,0,0,2.42,0q-.12-6.26-.22-12.49a1.21,1.21,0,0,0-2.41,0Z"/><path class="cls-5" d="M186.48,19.26,199.84,19a1.21,1.21,0,0,0,0-2.42l-13.36.23a1.21,1.21,0,0,0,0,2.41Z"/></g></g></svg>